<?xml version="1.0" encoding="UTF-8"?><svg xmlns="http://www.w3.org/2000/svg" xmlns:xlink="http://www.w3.org/1999/xlink" viewBox="0 0 901.11 134.72"><defs><style>.g{fill:url(#f);}.h{fill:#12b8fa;}.i{fill:url(#d);}.j{fill:url(#e);}.k{fill:#5e91e5;}</style><linearGradient id="d" x1="119.97" y1="78.67" x2="30.61" y2="78.67" gradientTransform="matrix(1, 0, 0, 1, 0, 0)" gradientUnits="userSpaceOnUse"><stop offset="0" stop-color="#dd76f4"/><stop offset="1" stop-color="#38dfcc"/></linearGradient><linearGradient id="e" x1="100.07" y1="97.54" x2="12.44" y2="60.34" gradientTransform="matrix(1, 0, 0, 1, 0, 0)" gradientUnits="userSpaceOnUse"><stop offset="0" stop-color="#7973eb"/><stop offset="1" stop-color="#38dfcc"/></linearGradient><linearGradient id="f" x1="60.78" y1="67.36" x2="150.14" y2="67.36" gradientTransform="matrix(1, 0, 0, 1, 0, 0)" gradientUnits="userSpaceOnUse"><stop offset="0" stop-color="#aa76f4"/><stop offset="1" stop-color="#38dfcc"/></linearGradient></defs><g id="a"/><g id="b"><g id="c"><path class="i" d="M89.62,41.78c-7.88-25.54-20.78-25.54-28.67,0l-28.68,92.94H118.31l-28.68-92.94Z"/><path class="j" d="M30.35,19.16L.68,115.29c-2.98,9.65,4.24,19.42,14.33,19.42h59.34c10.1,0,17.31-9.78,14.33-19.42L59.02,19.16c-7.88-25.54-20.78-25.54-28.67,0Z"/><path class="g" d="M91.13,19.16l-29.67,96.14c-2.98,9.65,4.24,19.42,14.33,19.42h59.34c10.1,0,17.31-9.78,14.33-19.42L119.79,19.16c-7.88-25.54-20.78-25.54-28.67,0Z"/><g><path class="k" d="M178.81,95.48V40.94h14.42v9.62h.64c1.14-3.2,3.03-5.72,5.68-7.56s5.82-2.77,9.52-2.77,6.92,.93,9.55,2.79c2.63,1.86,4.38,4.37,5.26,7.55h.57c1.11-3.12,3.13-5.63,6.05-7.51,2.92-1.88,6.39-2.82,10.39-2.82,5.09,0,9.23,1.62,12.41,4.85,3.18,3.23,4.78,7.81,4.78,13.73v36.68h-15.09V61.78c0-3.03-.81-5.3-2.42-6.82-1.61-1.51-3.62-2.27-6.04-2.27-2.75,0-4.89,.87-6.43,2.61-1.54,1.74-2.31,4.03-2.31,6.87v33.31h-14.67V61.46c0-2.67-.76-4.81-2.29-6.39-1.53-1.59-3.53-2.38-6.02-2.38-1.68,0-3.19,.42-4.53,1.26-1.34,.84-2.4,2.01-3.18,3.52-.78,1.5-1.17,3.26-1.17,5.27v32.74h-15.13Z"/><path class="k" d="M285.56,96.51c-3.48,0-6.58-.61-9.3-1.83-2.72-1.22-4.87-3.03-6.45-5.43-1.57-2.4-2.36-5.4-2.36-9,0-3.03,.56-5.58,1.67-7.63,1.11-2.06,2.63-3.72,4.55-4.97,1.92-1.25,4.1-2.2,6.55-2.84s5.02-1.09,7.72-1.35c3.17-.33,5.73-.64,7.67-.94,1.94-.3,3.35-.74,4.23-1.33,.88-.59,1.31-1.47,1.31-2.63v-.21c0-2.25-.7-3.99-2.11-5.22-1.41-1.23-3.4-1.85-5.98-1.85-2.72,0-4.89,.6-6.5,1.79-1.61,1.2-2.68,2.69-3.2,4.49l-13.99-1.14c.71-3.31,2.11-6.18,4.19-8.61,2.08-2.43,4.78-4.3,8.08-5.61,3.3-1.31,7.13-1.97,11.49-1.97,3.03,0,5.94,.36,8.72,1.07,2.78,.71,5.26,1.81,7.42,3.3,2.17,1.49,3.88,3.4,5.13,5.73,1.25,2.33,1.88,5.12,1.88,8.36v36.79h-14.35v-7.56h-.43c-.88,1.7-2.05,3.2-3.52,4.49-1.47,1.29-3.23,2.3-5.29,3.02-2.06,.72-4.44,1.08-7.14,1.08Zm4.33-10.44c2.23,0,4.19-.44,5.9-1.33s3.04-2.09,4.01-3.6c.97-1.51,1.46-3.23,1.46-5.15v-5.79c-.47,.31-1.12,.59-1.94,.83s-1.73,.47-2.75,.67c-1.02,.2-2.04,.38-3.05,.53-1.02,.15-1.94,.29-2.77,.41-1.78,.26-3.33,.67-4.65,1.24-1.33,.57-2.36,1.33-3.09,2.29-.73,.96-1.1,2.15-1.1,3.57,0,2.06,.75,3.63,2.25,4.71,1.5,1.08,3.42,1.62,5.74,1.62Z"/><path class="k" d="M352.6,117.07c-4.9,0-9.1-.67-12.59-2.01-3.49-1.34-6.27-3.15-8.33-5.45-2.06-2.3-3.4-4.88-4.01-7.74l13.99-1.88c.43,1.09,1.1,2.11,2.02,3.05,.92,.95,2.15,1.71,3.68,2.29,1.53,.58,3.39,.87,5.59,.87,3.29,0,6.01-.8,8.15-2.4,2.14-1.6,3.21-4.27,3.21-8.01v-9.98h-.64c-.66,1.52-1.66,2.95-2.98,4.3-1.33,1.35-3.03,2.45-5.11,3.3-2.08,.85-4.57,1.28-7.46,1.28-4.1,0-7.82-.95-11.17-2.86-3.35-1.91-6.01-4.83-7.99-8.77-1.98-3.94-2.97-8.93-2.97-14.97s1.01-11.34,3.02-15.48c2.01-4.14,4.69-7.24,8.04-9.3,3.35-2.06,7.02-3.09,11.03-3.09,3.05,0,5.61,.52,7.67,1.54,2.06,1.03,3.72,2.31,4.99,3.84,1.27,1.53,2.24,3.02,2.93,4.49h.57v-9.16h15.02v55.08c0,4.64-1.14,8.52-3.41,11.65-2.27,3.12-5.42,5.47-9.43,7.05-4.01,1.57-8.62,2.36-13.83,2.36Zm.32-33.74c2.44,0,4.5-.61,6.2-1.83,1.69-1.22,2.99-2.97,3.91-5.26,.91-2.28,1.37-5.02,1.37-8.22s-.45-5.97-1.35-8.33c-.9-2.36-2.2-4.18-3.91-5.49-1.7-1.3-3.78-1.95-6.21-1.95s-4.58,.67-6.29,2.01c-1.7,1.34-3,3.19-3.87,5.56-.88,2.37-1.31,5.1-1.31,8.2s.44,5.87,1.33,8.15,2.18,4.05,3.87,5.29c1.69,1.24,3.78,1.86,6.27,1.86Z"/><path class="k" d="M416.2,96.55c-5.61,0-10.44-1.14-14.47-3.43-4.04-2.28-7.14-5.53-9.32-9.73-2.18-4.2-3.27-9.18-3.27-14.93s1.09-10.53,3.27-14.77c2.18-4.24,5.25-7.54,9.22-9.91,3.97-2.37,8.62-3.55,13.97-3.55,3.6,0,6.95,.57,10.07,1.72s5.84,2.87,8.17,5.17c2.33,2.3,4.15,5.18,5.45,8.65,1.3,3.47,1.95,7.52,1.95,12.16v4.15h-46.06v-9.38h31.82c0-2.18-.47-4.11-1.42-5.79-.95-1.68-2.25-3-3.92-3.96s-3.6-1.44-5.81-1.44-4.33,.53-6.09,1.58c-1.76,1.05-3.14,2.46-4.14,4.23s-1.5,3.72-1.53,5.88v8.91c0,2.7,.5,5.03,1.51,7,1.01,1.97,2.43,3.48,4.28,4.55s4.04,1.6,6.57,1.6c1.68,0,3.22-.24,4.62-.71,1.4-.47,2.59-1.18,3.59-2.13,.99-.95,1.75-2.11,2.27-3.48l13.99,.92c-.71,3.36-2.16,6.29-4.35,8.79-2.19,2.5-5.01,4.44-8.45,5.82-3.44,1.39-7.42,2.08-11.91,2.08Z"/><path class="h" d="M451.11,95.48V40.94h14.42v9.62h.64c1.14-3.2,3.03-5.72,5.68-7.56s5.82-2.77,9.52-2.77,6.92,.93,9.55,2.79c2.63,1.86,4.38,4.37,5.26,7.55h.57c1.11-3.12,3.13-5.63,6.05-7.51,2.92-1.88,6.39-2.82,10.39-2.82,5.09,0,9.23,1.62,12.41,4.85,3.18,3.23,4.78,7.81,4.78,13.73v36.68h-15.09V61.78c0-3.03-.81-5.3-2.42-6.82-1.61-1.51-3.62-2.27-6.04-2.27-2.75,0-4.89,.87-6.43,2.61-1.54,1.74-2.31,4.03-2.31,6.87v33.31h-14.67V61.46c0-2.67-.76-4.81-2.29-6.39-1.53-1.59-3.53-2.38-6.02-2.38-1.68,0-3.19,.42-4.53,1.26-1.34,.84-2.4,2.01-3.18,3.52-.78,1.5-1.17,3.26-1.17,5.27v32.74h-15.13Z"/><path class="h" d="M557.86,96.51c-3.48,0-6.58-.61-9.3-1.83-2.72-1.22-4.87-3.03-6.45-5.43-1.58-2.4-2.36-5.4-2.36-9,0-3.03,.56-5.58,1.67-7.63,1.11-2.06,2.63-3.72,4.54-4.97,1.92-1.25,4.1-2.2,6.55-2.84s5.03-1.09,7.72-1.35c3.17-.33,5.73-.64,7.67-.94,1.94-.3,3.35-.74,4.23-1.33,.88-.59,1.31-1.47,1.31-2.63v-.21c0-2.25-.71-3.99-2.11-5.22-1.41-1.23-3.4-1.85-5.98-1.85-2.72,0-4.89,.6-6.5,1.79-1.61,1.2-2.67,2.69-3.2,4.49l-13.99-1.14c.71-3.31,2.11-6.18,4.19-8.61s4.78-4.3,8.08-5.61,7.13-1.97,11.49-1.97c3.03,0,5.94,.36,8.72,1.07,2.78,.71,5.26,1.81,7.42,3.3,2.17,1.49,3.88,3.4,5.13,5.73,1.25,2.33,1.88,5.12,1.88,8.36v36.79h-14.35v-7.56h-.43c-.88,1.7-2.05,3.2-3.52,4.49-1.47,1.29-3.23,2.3-5.29,3.02-2.06,.72-4.44,1.08-7.14,1.08Zm4.33-10.44c2.23,0,4.19-.44,5.9-1.33,1.7-.89,3.04-2.09,4.01-3.6,.97-1.51,1.46-3.23,1.46-5.15v-5.79c-.47,.31-1.12,.59-1.94,.83s-1.73,.47-2.75,.67c-1.02,.2-2.04,.38-3.05,.53-1.02,.15-1.94,.29-2.77,.41-1.78,.26-3.33,.67-4.65,1.24-1.33,.57-2.36,1.33-3.09,2.29-.73,.96-1.1,2.15-1.1,3.57,0,2.06,.75,3.63,2.25,4.71,1.5,1.08,3.41,1.62,5.73,1.62Z"/><path class="h" d="M615.46,63.95v31.53h-15.13V40.94h14.42v9.62h.64c1.21-3.17,3.23-5.69,6.07-7.55,2.84-1.86,6.29-2.79,10.33-2.79,3.79,0,7.09,.83,9.91,2.49,2.82,1.66,5.01,4.02,6.57,7.08,1.56,3.07,2.34,6.72,2.34,10.96v34.73h-15.13V63.45c.02-3.34-.83-5.95-2.56-7.83-1.73-1.88-4.11-2.82-7.14-2.82-2.04,0-3.83,.44-5.38,1.31-1.55,.88-2.76,2.15-3.62,3.82s-1.31,3.68-1.33,6.02Z"/><path class="h" d="M678.06,96.51c-3.48,0-6.58-.61-9.3-1.83-2.72-1.22-4.87-3.03-6.45-5.43-1.58-2.4-2.36-5.4-2.36-9,0-3.03,.56-5.58,1.67-7.63,1.11-2.06,2.63-3.72,4.54-4.97,1.92-1.25,4.1-2.2,6.55-2.84s5.03-1.09,7.72-1.35c3.17-.33,5.73-.64,7.67-.94,1.94-.3,3.35-.74,4.23-1.33,.88-.59,1.31-1.47,1.31-2.63v-.21c0-2.25-.71-3.99-2.11-5.22-1.41-1.23-3.4-1.85-5.98-1.85-2.72,0-4.89,.6-6.5,1.79-1.61,1.2-2.67,2.69-3.2,4.49l-13.99-1.14c.71-3.31,2.11-6.18,4.19-8.61s4.78-4.3,8.08-5.61,7.13-1.97,11.49-1.97c3.03,0,5.94,.36,8.72,1.07,2.78,.71,5.26,1.81,7.42,3.3,2.17,1.49,3.88,3.4,5.13,5.73,1.25,2.33,1.88,5.12,1.88,8.36v36.79h-14.35v-7.56h-.43c-.88,1.7-2.05,3.2-3.52,4.49-1.47,1.29-3.23,2.3-5.29,3.02-2.06,.72-4.44,1.08-7.14,1.08Zm4.33-10.44c2.23,0,4.19-.44,5.9-1.33,1.7-.89,3.04-2.09,4.01-3.6,.97-1.51,1.46-3.23,1.46-5.15v-5.79c-.47,.31-1.12,.59-1.94,.83s-1.73,.47-2.75,.67c-1.02,.2-2.04,.38-3.05,.53-1.02,.15-1.94,.29-2.77,.41-1.78,.26-3.33,.67-4.65,1.24-1.33,.57-2.36,1.33-3.09,2.29-.73,.96-1.1,2.15-1.1,3.57,0,2.06,.75,3.63,2.25,4.71,1.5,1.08,3.41,1.62,5.73,1.62Z"/><path class="h" d="M745.11,117.07c-4.9,0-9.1-.67-12.59-2.01-3.49-1.34-6.27-3.15-8.33-5.45s-3.4-4.88-4.01-7.74l13.99-1.88c.43,1.09,1.1,2.11,2.02,3.05,.92,.95,2.15,1.71,3.68,2.29,1.53,.58,3.39,.87,5.59,.87,3.29,0,6.01-.8,8.15-2.4,2.14-1.6,3.21-4.27,3.21-8.01v-9.98h-.64c-.66,1.52-1.66,2.95-2.98,4.3-1.33,1.35-3.03,2.45-5.11,3.3-2.08,.85-4.57,1.28-7.46,1.28-4.1,0-7.82-.95-11.17-2.86-3.35-1.91-6.01-4.83-7.99-8.77s-2.96-8.93-2.96-14.97,1.01-11.34,3.02-15.48c2.01-4.14,4.69-7.24,8.04-9.3,3.35-2.06,7.03-3.09,11.03-3.09,3.05,0,5.61,.52,7.67,1.54s3.72,2.31,4.99,3.84c1.27,1.53,2.24,3.02,2.93,4.49h.57v-9.16h15.02v55.08c0,4.64-1.14,8.52-3.41,11.65-2.27,3.12-5.42,5.47-9.43,7.05-4.01,1.57-8.62,2.36-13.83,2.36Zm.32-33.74c2.44,0,4.5-.61,6.2-1.83,1.69-1.22,3-2.97,3.91-5.26,.91-2.28,1.37-5.02,1.37-8.22s-.45-5.97-1.35-8.33c-.9-2.36-2.2-4.18-3.91-5.49-1.7-1.3-3.78-1.95-6.21-1.95s-4.58,.67-6.29,2.01c-1.7,1.34-3,3.19-3.87,5.56-.88,2.37-1.31,5.1-1.31,8.2s.44,5.87,1.33,8.15,2.18,4.05,3.87,5.29c1.69,1.24,3.78,1.86,6.27,1.86Z"/><path class="h" d="M808.71,96.55c-5.61,0-10.43-1.14-14.47-3.43s-7.14-5.53-9.32-9.73c-2.18-4.2-3.27-9.18-3.27-14.93s1.09-10.53,3.27-14.77c2.18-4.24,5.25-7.54,9.21-9.91,3.96-2.37,8.62-3.55,13.97-3.55,3.6,0,6.95,.57,10.07,1.72s5.84,2.87,8.17,5.17c2.33,2.3,4.15,5.18,5.45,8.65,1.3,3.47,1.95,7.52,1.95,12.16v4.15h-46.06v-9.38h31.82c0-2.18-.47-4.11-1.42-5.79-.95-1.68-2.25-3-3.92-3.96s-3.6-1.44-5.81-1.44-4.33,.53-6.09,1.58c-1.76,1.05-3.14,2.46-4.14,4.23s-1.5,3.72-1.53,5.88v8.91c0,2.7,.5,5.03,1.51,7,1.01,1.97,2.43,3.48,4.28,4.55s4.04,1.6,6.57,1.6c1.68,0,3.22-.24,4.62-.71,1.4-.47,2.59-1.18,3.59-2.13,.99-.95,1.75-2.11,2.27-3.48l13.99,.92c-.71,3.36-2.16,6.29-4.35,8.79-2.19,2.5-5.01,4.44-8.45,5.82-3.44,1.39-7.42,2.08-11.91,2.08Z"/><path class="h" d="M863.71,96.37c-4.14,0-7.89-1.07-11.24-3.21-3.35-2.14-6-5.3-7.96-9.48-1.95-4.18-2.93-9.31-2.93-15.39s1.01-11.45,3.02-15.61c2.01-4.15,4.69-7.27,8.04-9.34,3.35-2.07,7.03-3.11,11.03-3.11,3.05,0,5.6,.52,7.65,1.54,2.05,1.03,3.7,2.31,4.97,3.84,1.27,1.53,2.23,3.02,2.89,4.49h.46V22.76h15.09V95.48h-14.91v-8.74h-.64c-.71,1.52-1.71,3.01-3,4.49-1.29,1.48-2.96,2.71-5.01,3.68-2.05,.97-4.54,1.46-7.47,1.46Zm4.79-12.04c2.44,0,4.5-.67,6.2-2.01s3-3.21,3.91-5.63c.91-2.41,1.37-5.24,1.37-8.49s-.45-6.06-1.35-8.45c-.9-2.39-2.2-4.24-3.91-5.54-1.7-1.3-3.78-1.95-6.21-1.95s-4.58,.67-6.29,2.02c-1.7,1.35-3,3.22-3.87,5.61-.88,2.39-1.31,5.16-1.31,8.31s.44,5.97,1.33,8.4c.89,2.43,2.18,4.32,3.87,5.68,1.69,1.36,3.78,2.04,6.27,2.04Z"/></g></g></g></svg>